<?xml version="1.0" encoding="UTF-8"?>
<!DOCTYPE svg PUBLIC "-//W3C//DTD SVG 1.1//EN" "http://www.w3.org/Graphics/SVG/1.1/DTD/svg11.dtd">
<!-- Creator: CorelDRAW 2020 (64-Bit) -->
<svg xmlns="http://www.w3.org/2000/svg" xml:space="preserve" width="24.1298mm" height="4.7412mm" version="1.1" style="shape-rendering:geometricPrecision; text-rendering:geometricPrecision; image-rendering:optimizeQuality; fill-rule:evenodd; clip-rule:evenodd"
viewBox="0 0 2412.98 474.12"
 xmlns:xlink="http://www.w3.org/1999/xlink"
 xmlns:xodm="http://www.corel.com/coreldraw/odm/2003">
 <defs>
  <style type="text/css">
   <![CDATA[
    .fil1 {fill:#FF2525}
    .fil0 {fill:white}
    .fil3 {fill:#FF3425;fill-rule:nonzero}
    .fil2 {fill:white;fill-rule:nonzero}
   ]]>
  </style>
 </defs>
 <g id="Слой_x0020_1">
  <metadata id="CorelCorpID_0Corel-Layer"/>
  <g id="_1666568732000">
   <path class="fil0" d="M283.9 3.95l288.13 93.78 -289.03 -27.75 0 400.19 -238.55 -44.19 0 -328.25 -48.69 0 288.14 -93.78zm-199.18 174.78l0 174.37 -8.23 0 0 -174.37 8.23 0z"/>
   <path class="fil0" d="M456.07 122.46l83.67 1.96 -1.51 119.71 -84.05 5.29 1.89 -126.96zm-137.44 -1.82l109.05 0 0 126.96 -109.05 0 0 -126.96zm138.19 161.21l84.44 -1.35 -1.53 113.54 -81.78 12.82 -1.13 -125.01zm-139.98 18.86l106.22 -11.12 0 124.25 -106.22 13.83 0 -126.96z"/>
   <path class="fil1" d="M308.4 97.73c22.52,2.16 44.26,4.25 65.22,6.26 20.23,1.95 39.72,3.82 58.64,5.63 0,24.23 0,48.4 0,72.53 0,24.14 0,48.3 0,72.44 -18.92,0.66 -38.43,1.34 -58.69,2.05 -20.94,0.73 -42.7,1.49 -65.17,2.27 0,-26.83 0,-53.74 0,-80.57 0,-26.83 0,-53.7 0,-80.61zm0 185.25c22.45,-1.22 44.18,-2.41 65.17,-3.55 20.23,-1.1 39.77,-2.17 58.69,-3.2 0,24.17 0,48.37 0,72.47 0,24.16 0,48.3 0,72.34 -18.95,3.51 -38.46,7.12 -58.76,10.88 -20.94,3.88 -42.7,7.91 -65.1,12.06 0,-26.69 0,-53.53 0,-80.36 0,-26.87 0,-53.74 0,-80.64zm140.05 -7.63c17.73,-0.97 34.9,-1.9 51.53,-2.81 16.12,-0.87 31.75,-1.72 46.97,-2.55 0,21.66 0,43.29 0,64.93 0,21.64 0,43.27 0,64.88 -15.2,2.81 -30.8,5.7 -46.92,8.69 -16.63,3.08 -33.83,6.26 -51.58,9.55 0,-23.72 0,-47.5 0,-71.28 0,-23.78 0,-47.6 0,-71.41zm0 -164.17c17.7,1.7 34.88,3.35 51.48,4.95 16.12,1.54 31.75,3.04 47.02,4.51 0,21.77 0,43.43 0,65.07 0,21.61 0,43.27 0,64.87 -15.25,0.54 -30.87,1.08 -46.97,1.64 -16.65,0.58 -33.8,1.19 -51.53,1.8 0,-23.78 0,-47.56 0,-71.37 0,-23.75 0,-47.56 0,-71.47zm-74.9 33.7c7.85,0.48 14.91,4.83 19.92,11.4 4.98,6.55 8.06,15.3 8.06,24.87 0,9.54 -3.08,18.14 -8.06,24.35 -5.04,6.27 -12.1,10.18 -19.94,10.18 -7.97,0 -15.32,-4.02 -20.64,-10.55 -5.41,-6.62 -8.77,-15.75 -8.77,-25.77 0,-10.02 3.36,-18.9 8.82,-25.22 5.3,-6.17 12.62,-9.74 20.61,-9.26zm16.55 15.43c-4.15,-5.46 -10.02,-9.03 -16.55,-9.39 -6.63,-0.38 -12.69,2.6 -17.1,7.76 -4.44,5.2 -7.23,12.57 -7.23,20.84 0,8.27 2.79,15.82 7.23,21.32 4.41,5.42 10.45,8.77 17.08,8.81 6.53,0.03 12.4,-3.18 16.57,-8.38 4.18,-5.17 6.76,-12.32 6.76,-20.26 0,-7.97 -2.58,-15.28 -6.76,-20.7zm-63.9 15.6c3.7,0.13 7.37,0.25 11.04,0.37 0.67,0.02 1.24,0.72 1.24,1.53 0,0.91 0.02,1.82 0,2.73 -0.01,0.85 -0.57,1.47 -1.24,1.45 -3.69,-0.1 -7.34,-0.2 -11.04,-0.31 -0.69,-0.02 -1.27,-0.68 -1.27,-1.54 0,-0.92 0,-1.84 0,-2.76 0,-0.82 0.58,-1.49 1.27,-1.47zm81.58 2.73c3.22,0.11 6.39,0.21 9.61,0.32 0.6,0.02 1.1,0.66 1.1,1.42 0,0.85 0,1.7 0,2.55 0,0.79 -0.5,1.37 -1.1,1.36 -3.21,-0.09 -6.39,-0.18 -9.61,-0.27 -0.59,-0.02 -1.1,-0.64 -1.1,-1.43 0,-0.87 0,-1.73 0,-2.59 0,-0.76 0.51,-1.38 1.1,-1.36zm-36.47 -41.94c0,-4.24 0,-8.48 0,-12.72 0,-0.82 0.52,-1.4 1.17,-1.35 0.71,0.05 1.43,0.11 2.17,0.17 0.62,0.05 1.17,0.72 1.17,1.53 0,4.23 0,8.45 0,12.67 0,0.79 -0.55,1.37 -1.17,1.33 -0.74,-0.05 -1.46,-0.1 -2.17,-0.14 -0.65,-0.05 -1.17,-0.71 -1.17,-1.49zm-0.05 99.88c0,-4.24 0,-8.48 0,-12.72 0,-0.79 0.55,-1.41 1.17,-1.42 0.71,0 1.43,-0.01 2.17,-0.01 0.64,0 1.17,0.62 1.17,1.4 0,4.22 0,8.45 0,12.67 0,0.82 -0.53,1.45 -1.17,1.46 -0.74,0.01 -1.46,0.03 -2.17,0.04 -0.62,0.02 -1.17,-0.6 -1.17,-1.42zm-32.58 -18.41c2.52,-3.04 5.11,-6.12 7.65,-9.21 0.47,-0.56 1.25,-0.57 1.72,0.01 0.53,0.67 1.07,1.3 1.62,1.96 0.47,0.55 0.45,1.52 0,2.07 -2.53,3.1 -5.1,6.14 -7.63,9.21 -0.48,0.58 -1.26,0.57 -1.74,0.01 -0.56,-0.65 -1.09,-1.29 -1.62,-1.95 -0.47,-0.58 -0.48,-1.52 0,-2.1zm57.75 -69.32c2.28,-2.76 4.6,-5.56 6.94,-8.32 0.43,-0.51 1.13,-0.47 1.57,0.11 0.49,0.63 0.96,1.27 1.43,1.91 0.43,0.57 0.42,1.47 0,1.98 -2.3,2.8 -4.58,5.59 -6.89,8.35 -0.43,0.51 -1.13,0.47 -1.57,-0.09 -0.52,-0.65 -1,-1.28 -1.48,-1.95 -0.42,-0.57 -0.43,-1.47 0,-1.99zm-46.76 -2.75c-2.54,-3.21 -5.08,-6.41 -7.63,-9.67 -0.48,-0.61 -1.28,-0.64 -1.74,-0.12 -0.56,0.63 -1.09,1.26 -1.6,1.86 -0.47,0.55 -0.47,1.48 0,2.09 2.53,3.25 5.08,6.47 7.63,9.67 0.48,0.6 1.25,0.63 1.72,0.1 0.51,-0.58 1.05,-1.22 1.62,-1.85 0.46,-0.51 0.47,-1.49 0,-2.08zm56.73 71.95c-2.31,-2.9 -4.58,-5.82 -6.9,-8.77 -0.43,-0.55 -1.15,-0.55 -1.57,-0.02 -0.51,0.66 -1.02,1.26 -1.48,1.86 -0.42,0.55 -0.43,1.45 0,1.99 2.31,2.96 4.63,5.88 6.94,8.78 0.43,0.54 1.12,0.53 1.55,-0.01 0.47,-0.58 0.95,-1.22 1.46,-1.86 0.42,-0.52 0.43,-1.43 0,-1.97zm97.82 -36.2c6.66,0.22 13.22,0.43 19.71,0.67 0.02,-0.05 0.05,-0.1 0.09,-0.16 2.54,-3.48 5.08,-7.02 7.56,-10.5 0.33,-0.45 0.89,-0.44 1.22,0.05 0.39,0.59 0.76,1.15 1.15,1.7 0.35,0.49 0.33,1.29 0,1.75 -1.79,2.43 -3.51,4.88 -5.25,7.32 2.05,0.07 4.12,0.14 6.2,0.21 0.48,0.01 0.86,0.56 0.86,1.24 0,0.79 0,1.58 0,2.34 0,0.68 -0.38,1.17 -0.86,1.16 -2.08,-0.05 -4.13,-0.11 -6.2,-0.17 1.74,2.57 3.47,5.12 5.25,7.64 0.34,0.49 0.33,1.25 0,1.72 -0.39,0.56 -0.79,1.1 -1.15,1.63 -0.33,0.47 -0.88,0.46 -1.22,-0.03 -2.5,-3.62 -5.04,-7.28 -7.56,-10.92 -0.03,-0.05 -0.07,-0.12 -0.09,-0.18 -6.49,-0.18 -13.05,-0.37 -19.71,-0.55 4.7,6.68 9.38,13.3 14.01,19.87 0.04,0 0.12,0 0.14,0 3.63,0.03 7.23,0.06 10.8,0.1 0.48,0 0.86,0.54 0.86,1.23 0,0.79 0,1.58 0,2.35 0,0.65 -0.38,1.22 -0.86,1.22 -2.5,-0.01 -5.01,-0.03 -7.53,-0.03 1.5,2.12 2.99,4.23 4.48,6.31 0.34,0.48 0.33,1.28 0,1.74 -0.41,0.57 -0.82,1.17 -1.19,1.69 -0.34,0.48 -0.87,0.48 -1.21,0 -1.5,-2.08 -3.01,-4.19 -4.51,-6.31 0,3.58 0,7.17 0,10.7 0,0.69 -0.39,1.24 -0.86,1.25 -0.57,0 -1.15,0.01 -1.7,0.01 -0.45,0.01 -0.88,-0.54 -0.88,-1.23 0,-5.09 0,-10.22 0,-15.37 0,-0.09 0,-0.15 0.02,-0.23 -4.67,-6.56 -9.37,-13.19 -14.09,-19.87 0,9.34 0,18.68 0,27.99 0.04,0.03 0.11,0.1 0.14,0.14 2.61,3.63 5.27,7.29 7.87,10.93 0.36,0.5 0.34,1.31 0,1.77 -0.43,0.59 -0.81,1.18 -1.19,1.73 -0.35,0.5 -0.92,0.5 -1.27,0.02 -1.84,-2.54 -3.7,-5.1 -5.55,-7.67 0,3.06 0,6.12 0,9.16 0,0.7 -0.41,1.26 -0.91,1.27 -0.57,0.01 -1.17,0.03 -1.72,0.03 -0.5,0.02 -0.93,-0.53 -0.93,-1.23 0,-3.05 0,-6.13 -0.02,-9.2 -1.84,2.62 -3.7,5.26 -5.58,7.88 -0.39,0.53 -0.97,0.51 -1.34,0.02 -0.42,-0.56 -0.83,-1.14 -1.24,-1.72 -0.35,-0.5 -0.36,-1.32 0,-1.83 2.67,-3.74 5.39,-7.44 8.06,-11.15 0.02,-0.03 0.08,-0.11 0.1,-0.14 0,-9.35 0,-18.72 0,-28.09 -4.8,6.53 -9.64,13.12 -14.55,19.77 0,0.09 0,0.15 0,0.24 0,5.32 0,10.57 0,15.86 0,0.71 -0.41,1.28 -0.94,1.29 -0.61,0 -1.21,0.01 -1.81,0.02 -0.52,0 -0.95,-0.56 -0.95,-1.27 0,-3.7 0,-7.4 0,-11.12 -1.62,2.21 -3.25,4.43 -4.84,6.58 -0.39,0.52 -0.97,0.51 -1.36,0.01 -0.45,-0.58 -0.85,-1.18 -1.29,-1.77 -0.37,-0.49 -0.39,-1.26 0,-1.8 1.59,-2.17 3.24,-4.4 4.86,-6.61 -2.76,-0.01 -5.51,-0.03 -8.27,-0.03 -0.53,-0.01 -0.98,-0.61 -0.98,-1.3 0,-0.82 0,-1.66 0,-2.51 0,-0.72 0.45,-1.29 0.98,-1.28 3.96,0.03 7.87,0.07 11.8,0.1 0.08,0 0.1,0 0.17,0.01 4.92,-6.69 9.81,-13.25 14.67,-19.78 -6.87,-0.19 -13.81,-0.38 -20.85,-0.58 -0.04,0.06 -0.06,0.13 -0.09,0.17 -2.83,3.67 -5.63,7.4 -8.45,11.15 -0.38,0.5 -0.98,0.48 -1.38,-0.03 -0.44,-0.56 -0.9,-1.17 -1.34,-1.77 -0.37,-0.53 -0.39,-1.34 0,-1.85 2,-2.61 3.99,-5.22 5.99,-7.82 -2.36,-0.1 -4.72,-0.17 -7.08,-0.23 -0.53,-0.02 -0.96,-0.6 -0.96,-1.34 0,-0.78 0,-1.63 0,-2.48 0,-0.73 0.43,-1.29 0.96,-1.27 2.36,0.08 4.72,0.15 7.08,0.23 -2,-2.72 -3.99,-5.46 -5.99,-8.21 -0.36,-0.51 -0.37,-1.35 0,-1.85 0.42,-0.55 0.87,-1.12 1.32,-1.7 0.36,-0.48 1,-0.46 1.38,0.06 2.86,3.93 5.67,7.84 8.47,11.69 0.04,0.06 0.05,0.13 0.09,0.19 7.04,0.23 13.98,0.45 20.85,0.68 -4.86,-6.82 -9.75,-13.71 -14.67,-20.67 -0.07,0 -0.12,0.03 -0.17,0.02 -3.93,-0.2 -7.87,-0.4 -11.8,-0.61 -0.55,-0.02 -0.98,-0.65 -0.98,-1.38 0,-0.81 0,-1.62 0,-2.47 0,-0.72 0.43,-1.3 0.98,-1.27 2.74,0.16 5.51,0.32 8.27,0.47 -1.62,-2.27 -3.26,-4.59 -4.89,-6.91 -0.37,-0.53 -0.38,-1.34 0,-1.83 0.41,-0.51 0.82,-1.11 1.3,-1.69 0.36,-0.44 1.01,-0.39 1.35,0.1 1.62,2.3 3.25,4.63 4.87,6.94 0,-3.7 0,-7.42 0,-11.15 0,-0.71 0.41,-1.28 0.95,-1.24 0.58,0.04 1.2,0.08 1.81,0.13 0.53,0.04 0.94,0.66 0.94,1.37 0,5.32 0,10.6 0,15.89 0,0.06 0,0.15 0,0.21 4.89,6.95 9.75,13.84 14.55,20.66 0,-9.34 0,-18.71 0,-28.09 -0.05,-0.03 -0.06,-0.1 -0.1,-0.15 -2.68,-3.88 -5.4,-7.77 -8.09,-11.67 -0.34,-0.51 -0.35,-1.32 0,-1.8 0.39,-0.53 0.81,-1.09 1.25,-1.65 0.35,-0.45 0.95,-0.42 1.31,0.11 1.88,2.76 3.77,5.48 5.63,8.19 0,-3.04 0,-6.09 0,-9.16 0,-0.71 0.43,-1.23 0.9,-1.19 0.57,0.05 1.17,0.09 1.75,0.14 0.5,0.04 0.9,0.63 0.9,1.33 0,3.06 0,6.1 0,9.13 1.86,-2.43 3.68,-4.87 5.54,-7.3 0.34,-0.45 0.96,-0.43 1.31,0.1 0.39,0.6 0.79,1.22 1.19,1.8 0.36,0.51 0.34,1.32 0,1.77 -2.64,3.45 -5.29,6.94 -7.9,10.44 -0.04,0.06 -0.09,0.11 -0.14,0.14 0.03,9.34 0.03,18.68 0.03,27.99 4.72,-6.39 9.42,-12.73 14.07,-19.01 -0.02,-0.06 -0.02,-0.14 -0.02,-0.2 0,-5.13 0,-10.25 0,-15.41 0,-0.69 0.4,-1.23 0.88,-1.2 0.55,0.04 1.12,0.08 1.69,0.12 0.48,0.04 0.88,0.7 0.89,1.36 0.01,3.55 0.02,7.14 0.02,10.7 1.48,-2.03 2.96,-4.06 4.46,-6.04 0.33,-0.44 0.9,-0.41 1.24,0.08 0.4,0.58 0.8,1.18 1.17,1.73 0.33,0.49 0.33,1.29 0,1.74 -1.49,2.03 -2.96,4.04 -4.46,6.04 2.52,0.15 5.03,0.29 7.51,0.46 0.46,0.03 0.88,0.61 0.88,1.3 0,0.79 0,1.56 0,2.32 0,0.69 -0.38,1.23 -0.86,1.21 -3.57,-0.19 -7.18,-0.37 -10.8,-0.56 -0.02,0 -0.1,-0.03 -0.14,-0.04 -4.63,6.25 -9.31,12.59 -14.01,18.99zm-122.27 158.95c0.81,-17.27 4.98,-26.47 9.68,-30.46 4.75,-3.95 9.92,-2.74 13.26,0.98 3.32,3.76 4.82,10.02 2.27,16.31 -2.53,6.19 -9.23,12.44 -22.76,15.79 -0.88,0.23 -1.76,0.46 -2.62,0.65 0.05,-1.08 0.12,-2.16 0.17,-3.27zm11.92 -25.9c-3.34,2.77 -6.29,9.54 -7.27,22.38 10.04,-2.89 15,-7.41 16.79,-11.83 1.53,-3.79 0.57,-7.63 -1.45,-9.91 -2.08,-2.32 -5.25,-3.08 -8.07,-0.64zm-28.86 56.03c-0.81,17.53 -5.15,27.23 -10.16,31.66 -5.08,4.52 -10.71,3.74 -14.43,0.12 -3.72,-3.72 -5.42,-10.27 -2.56,-17.08 2.84,-6.74 10.24,-13.54 24.62,-17.31 0.91,-0.22 1.79,-0.46 2.7,-0.71 -0.05,1.13 -0.1,2.22 -0.17,3.32zm-12.55 27.16c3.58,-3.1 6.73,-10.26 7.78,-23.47 -10.76,3.38 -16.17,8.35 -18.16,13.11 -1.71,4.06 -0.64,8.05 1.63,10.29 2.24,2.25 5.7,2.79 8.75,0.07zm9.59 -51.5c-14.48,0.56 -22.11,-3.96 -25.16,-9.79 -3.18,-5.96 -1.72,-13.01 1.81,-17.78 3.53,-4.75 9.14,-7.25 14.38,-4.27 5.13,2.92 9.83,11.26 11.38,28.46 0.07,1.12 0.19,2.2 0.29,3.27 -0.91,0.04 -1.82,0.07 -2.7,0.11zm-21.08 -13.14c2.19,4.13 7.77,7.41 18.58,7.54 -1.58,-12.83 -4.99,-19 -8.66,-21.05 -3.17,-1.8 -6.56,-0.23 -8.76,2.72 -2.14,2.93 -3.05,7.2 -1.16,10.76 0,0.03 0,0.03 0,0.03zm43.84 31.3c13.6,-0.79 20.49,3.42 23.23,8.84 2.82,5.48 1.53,12.15 -1.62,16.83 -3.15,4.7 -8.25,7.43 -13.12,4.95 -4.82,-2.51 -9.35,-10.4 -10.8,-27.27 -0.13,-1.06 -0.22,-2.12 -0.29,-3.21 0.86,-0.05 1.72,-0.09 2.6,-0.14zm19.58 12.13c-1.95,-3.85 -7.06,-6.84 -17.17,-6.71 1.5,12.46 4.72,18.28 8.13,20.06 2.94,1.54 6.04,-0.15 7.99,-3.08 1.94,-2.87 2.72,-6.94 1.05,-10.24 0,0 0,0 0,-0.03zm-32.58 -38.34c-9.16,-12.38 -11.12,-22.37 -9.57,-29.33 1.53,-6.96 6.47,-10.75 11.31,-11.09 4.84,-0.34 9.61,2.7 11.11,9.32 1.49,6.56 -0.42,16.7 -9.39,30.74 -0.6,0.91 -1.17,1.82 -1.72,2.7 -0.6,-0.76 -1.17,-1.54 -1.74,-2.34zm-5.18 -28.19c-1.07,4.91 0.41,12.21 6.92,21.81 6.46,-10.79 7.9,-18.25 6.85,-22.92 -0.88,-4 -3.87,-5.77 -6.85,-5.54 -2.98,0.22 -6.01,2.46 -6.92,6.65zm8.64 62.57c8.94,11.89 10.85,21.57 9.37,28.45 -1.5,7.01 -6.3,11.2 -11.14,12.02 -4.84,0.82 -9.73,-1.79 -11.26,-8.42 -1.55,-6.55 0.41,-17.01 9.57,-31.59 0.57,-0.89 1.14,-1.82 1.72,-2.75 0.57,0.77 1.14,1.55 1.74,2.29zm5.1 27.67c1.05,-4.89 -0.4,-12 -6.84,-21.27 -6.49,11.2 -7.97,18.85 -6.92,23.46 0.9,3.98 3.91,5.53 6.89,5.04 3.01,-0.49 5.94,-3.01 6.87,-7.23zm-21.08 -40.98c-11.07,12.8 -19.68,16.36 -25.46,15.2 -5.91,-1.16 -8.92,-6.96 -8.92,-13.17 -0.02,0 -0.02,0 -0.02,0 0,-6.29 3.03,-12.83 8.94,-15.42 5.78,-2.55 14.39,-1.05 25.46,9.1 0.69,0.65 1.38,1.26 2.1,1.88 -0.72,0.81 -1.41,1.63 -2.1,2.41zm-24.17 9.54c4.08,0.8 10.4,-1.86 19.02,-11.08 -8.62,-7.13 -14.94,-8.27 -19.02,-6.46 -3.58,1.55 -5.37,5.57 -5.37,9.45l0 0c0,3.81 1.79,7.39 5.37,8.09zm52.36 -17.15c10.33,-12.24 18.11,-15.38 23.26,-14.12 5.13,1.25 7.7,6.7 7.7,12.47l0 0c0,5.74 -2.57,11.84 -7.7,14.32 -5.15,2.5 -12.93,1.23 -23.26,-8.5 -0.67,-0.6 -1.36,-1.19 -2,-1.83 0.64,-0.76 1.33,-1.55 2,-2.34zm22.14 -8.82c-3.65,-0.86 -9.33,1.53 -17.27,10.33 7.94,6.84 13.62,7.87 17.27,6.13 3.1,-1.47 4.65,-5.21 4.65,-8.78 -0.03,0 -0.03,0 -0.03,0 0,-3.58 -1.52,-6.95 -4.62,-7.68zm93.93 24.3c4.28,0.16 8.52,0.31 12.79,0.46 -0.24,-0.97 -0.47,-1.98 -0.69,-2.98 -0.41,-1.81 -0.26,-2.79 0.62,-4.46 1.5,-2.83 5.77,-8.12 10.02,-13.39 1.64,-2.03 3.27,-4.06 4.77,-5.95 -0.74,-0.45 -1.46,-0.9 -2.17,-1.35 -0.74,-0.45 -1.07,-1.63 -0.84,-2.74 0.77,-4.22 1.55,-8.42 2.32,-12.63 -0.17,0.08 -0.36,0.16 -0.51,0.2 -3.12,1.28 -6.27,2.56 -7.6,2.51 -1.24,-0.01 -1.93,-0.71 -2.01,-2.16 -0.16,-0.73 -0.33,-1.49 -0.47,-2.25 -5.49,9.29 -8.42,12.68 -10.19,10.78 -1.65,-1.79 -0.79,-7.74 0.62,-17.5 0.31,-2.23 0.67,-4.67 1.05,-7.3 -2.43,1.89 -5.1,3.07 -6.56,-0.49 -1.55,-3.8 -3.12,-7.6 -4.72,-11.42 -1.58,4.08 -3.15,8.16 -4.72,12.26 -1.51,3.87 -4.25,3.18 -6.75,1.7 0.35,2.63 0.73,5.04 1.07,7.25 1.45,9.68 2.36,15.51 0.67,17.7 -1.86,2.37 -4.94,-0.41 -10.83,-8.72 -0.17,0.82 -0.34,1.65 -0.53,2.44 -0.05,1.53 -0.81,2.42 -2.15,2.71 -1.48,0.37 -4.93,-0.24 -8.44,-0.85 -0.19,-0.01 -0.4,-0.05 -0.58,-0.09 0.89,4.31 1.75,8.6 2.65,12.89 0.24,1.14 -0.19,2.4 -0.95,3.03 -0.81,0.67 -1.62,1.35 -2.43,2.02 1.67,1.6 3.48,3.29 5.31,4.95 4.71,4.33 9.29,8.59 10.93,11.09 0.93,1.44 1.1,2.4 0.65,4.39 -0.24,1.11 -0.48,2.21 -0.72,3.29 4.63,-1.52 9.23,-3.02 13.79,-4.51 2.41,-0.8 4.17,-0.99 6.6,-0.88zm15.03 5.47c-5.27,-0.18 -10.56,-0.35 -15.88,-0.54 0.19,5.4 0.36,10.8 0.52,16.16 0,0.08 0,0.2 0,0.29 0,1.37 -0.79,2.61 -1.76,2.78 -0.98,0.16 -1.94,0.32 -2.89,0.48l0 0c-0.02,0.01 -0.05,0.01 -0.07,0.02 -1.01,0.11 -1.74,-0.94 -1.72,-2.32 0.19,-5.52 0.38,-11.06 0.57,-16.6 -5.44,1.82 -10.92,3.66 -16.48,5.5 -0.31,0.13 -0.62,0.15 -0.9,0.08 -1.01,-0.27 -1.56,-1.62 -1.25,-2.98 0.53,-2.37 1.05,-4.74 1.58,-7.12 -1.43,-2.14 -5.85,-6.16 -10.31,-10.27 -2.74,-2.5 -5.51,-5.01 -7.61,-7.13 -0.21,-0.22 -0.43,-0.47 -0.57,-0.81 -0.5,-1.21 -0.09,-2.81 0.83,-3.59 1.2,-0.99 2.41,-1.98 3.66,-2.98 -1.03,-4.95 -2.08,-9.91 -3.08,-14.92 -0.07,-0.35 -0.07,-0.75 -0.02,-1.15 0.21,-1.41 1.19,-2.42 2.24,-2.25 1.05,0.16 2.36,0.39 3.65,0.62 2.55,0.46 5.1,0.91 6.49,0.97 0.4,-1.86 0.81,-3.76 1.21,-5.65 0.02,-0.09 0.04,-0.15 0.07,-0.25 0.12,-0.39 0.29,-0.8 0.55,-1.13 0.79,-0.97 1.96,-0.96 2.63,0.01 4.17,6.21 6.39,9.91 7.29,11.33 0.63,0.98 0.55,0.92 0.41,-0.25 -0.21,-1.72 -0.86,-5.92 -1.76,-11.87 -0.56,-3.62 -1.2,-7.83 -1.82,-12.5 -0.12,-0.58 -0.09,-1.2 0.12,-1.79 0.48,-1.28 1.6,-1.85 2.48,-1.3 0.17,0.1 0.37,0.24 0.62,0.42 0.9,0.65 1.81,1.33 2.72,1.93 0.95,0.62 1.86,1.1 1.96,0.8 2.12,-5.44 4.27,-10.9 6.37,-16.33 0.14,-0.39 0.4,-0.77 0.69,-1.02 0.86,-0.7 1.93,-0.37 2.43,0.79 2.08,5.1 4.15,10.17 6.25,15.2 0.1,0.22 0.77,-0.21 1.55,-0.84 0.27,-0.22 0.6,-0.51 0.91,-0.77 0.38,-0.32 0.88,-0.8 1.36,-1.24 0.45,-0.42 0.86,-0.8 1.26,-1.12 0.34,-0.26 0.72,-0.38 1.1,-0.32 0.95,0.18 1.57,1.39 1.41,2.73 -0.62,4.72 -1.24,8.96 -1.74,12.65 -0.86,5.91 -1.47,10.14 -1.7,11.92 -0.15,1.21 -0.21,1.26 0.38,0.19 0.85,-1.52 2.83,-5.39 6.49,-11.76 0.37,-0.65 0.6,-1.21 1.19,-1.53 0.91,-0.46 1.89,0.16 2.15,1.42 0.38,1.77 0.77,3.5 1.17,5.26 1.26,-0.33 3.56,-1.25 5.84,-2.17 1.13,-0.46 2.25,-0.89 3.18,-1.24 0.26,-0.11 0.52,-0.13 0.81,-0.08 0.88,0.25 1.43,1.53 1.19,2.82 -0.93,4.88 -1.81,9.73 -2.69,14.6 0.74,0.48 3.24,1.82 3.72,2.52 0.57,0.94 0.47,2.45 -0.19,3.41 -1.89,2.48 -4.35,5.57 -6.8,8.62 -4.06,5.02 -8.09,9.99 -9.43,12.48 0.48,2.14 0.98,4.27 1.46,6.41 0.07,0.31 0.07,0.65 0.07,1.02 -0.12,1.34 -1,2.42 -1.91,2.39z"/>
   <path class="fil2" d="M661.44 300.98l-58.83 -180.34 22.09 0 44.77 139.19 45.9 -139.19 20.07 0 45.78 138.85 44.89 -138.85 21.42 0 -58.67 180.34 -16.33 0 -47.52 -145.21 -47.06 145.21 -16.51 0zm200.53 0l0 -139.52 130.82 0 0 20.41 -109.07 0 0 34.79 71.6 0 0 20.08 -71.6 0 0 44.17 115.1 0 0 20.07 -136.85 0zm191.77 -53.87l54.55 0 -27.11 -53.48 -27.44 53.48zm-50.57 53.87l70.99 -139.52 13.72 0 71.54 139.52 -23.36 0 -18.13 -35.47 -73.66 0 -18.01 35.47 -23.09 0zm198.24 0l0 -120.12 -58.88 0 0 -19.4 139.52 0 0 19.4 -58.89 0 0 120.12 -21.75 0zm124.08 -64.91l0 64.91 -21.75 0 0 -139.52 21.75 0 0 54.2 98.03 0 0 -54.2 21.75 0 0 139.52 -21.75 0 0 -64.91 -98.03 0zm167.29 64.91l0 -139.52 130.83 0 0 20.41 -109.08 0 0 34.79 71.6 0 0 20.08 -71.6 0 0 44.17 115.1 0 0 20.07 -136.85 0zm190.05 -81.3l74.16 0c7.53,0 13.27,-1.62 17.23,-4.91 3.97,-3.29 5.97,-7.98 5.97,-14.11 0,-6.08 -2,-10.76 -5.97,-13.94 -3.96,-3.24 -9.7,-4.85 -17.23,-4.85l-74.16 0 0 37.81zm0 20.41l0 60.89 -21.75 0 0 -139.19 95.91 0c14.28,0 25.43,3.46 33.51,10.32 8.09,6.86 12.11,16.39 12.11,28.61 0,9.87 -3.18,18.45 -9.59,25.7 -6.36,7.25 -14.67,11.71 -24.93,13.33l38.87 61.23 -23.7 0 -39.6 -60.89 -60.83 0z"/>
   <path class="fil3" d="M1903.03 200.94l79.63 0c11.32,0 19.91,-2.51 25.71,-7.53 5.85,-4.96 8.75,-12.32 8.75,-22.03 0,-9.42 -2.9,-16.84 -8.75,-22.08 -5.8,-5.3 -14,-7.92 -24.59,-7.92l-80.75 0 0 59.56zm-22.42 100.04l0 -180.34 103.5 0c17.51,0 31.29,4.35 41.32,13.05 10.09,8.7 15.11,20.63 15.11,35.74 0,15.67 -4.85,28.39 -14.61,38.03 -9.7,9.71 -22.69,14.56 -38.86,14.56l-84.04 0 0 78.96 -22.42 0zm209.96 -81.3l74.16 0c7.53,0 13.27,-1.62 17.23,-4.91 3.96,-3.29 5.97,-7.98 5.97,-14.11 0,-6.08 -2.01,-10.76 -5.97,-13.94 -3.96,-3.24 -9.7,-4.85 -17.23,-4.85l-74.16 0 0 37.81zm0 20.41l0 60.89 -21.76 0 0 -139.19 95.92 0c14.28,0 25.43,3.46 33.51,10.32 8.09,6.86 12.11,16.39 12.11,28.61 0,9.87 -3.18,18.45 -9.59,25.7 -6.36,7.25 -14.67,11.71 -24.93,13.33l38.87 61.23 -23.7 0 -39.6 -60.89 -60.83 0zm232.53 44.83c18.63,0 33.85,-5.02 45.62,-15.11 11.76,-10.04 17.62,-22.87 17.62,-38.43 0,-15.44 -5.92,-28.21 -17.74,-38.36 -11.81,-10.09 -26.98,-15.17 -45.5,-15.17 -18.52,0 -33.62,5.02 -45.34,15.12 -11.7,10.03 -17.56,22.86 -17.56,38.41 0,15.56 5.86,28.39 17.56,38.43 11.72,10.09 26.82,15.11 45.34,15.11zm0 20.41c-24.82,0 -45.28,-7.03 -61.28,-21.08 -16.01,-14 -24.04,-31.61 -24.04,-52.87 0,-21.3 7.97,-38.92 23.93,-52.8 16,-13.89 36.47,-20.8 61.39,-20.8 25.15,0 45.72,6.91 61.73,20.74 15.95,13.83 23.93,31.45 23.93,52.86 0,21.37 -8.03,38.98 -24.04,52.98 -16,14 -36.53,20.97 -61.62,20.97z"/>
   <path class="fil2" d="M684.8 398.06l-23.53 -72.13 8.83 0 17.92 55.67 18.35 -55.67 8.03 0 18.31 55.54 17.96 -55.54 8.56 0 -23.46 72.13 -6.54 0 -19 -58.08 -18.83 58.08 -6.6 0zm80.34 0l0 -55.94 8.83 0 0 55.94 -8.83 0zm28.24 0l0 -55.8 4.56 0 35.45 39.21 0 -39.21 8.56 0 0 55.8 -4.57 0 -35.44 -39.08 0 39.08 -8.56 0zm92.53 -55.8c9.12,0 16.46,2.61 22.06,7.8 5.57,5.22 8.36,11.98 8.36,20.3 0,8.41 -2.74,15.12 -8.2,20.16 -5.47,5.02 -12.88,7.54 -22.22,7.54l-24.71 0 0 -55.8 24.71 0zm0.13 8.02l-16.15 0 0 39.75 16.15 0c6.63,0 11.85,-1.79 15.64,-5.33 3.79,-3.55 5.69,-8.39 5.69,-14.48 0,-5.88 -1.96,-10.68 -5.89,-14.38 -3.93,-3.7 -9.06,-5.56 -15.44,-5.56zm73.4 41.36c7.45,0 13.54,-2.01 18.24,-6.05 4.72,-4.01 7.06,-9.14 7.06,-15.37 0,-6.17 -2.37,-11.28 -7.1,-15.34 -4.72,-4.04 -10.79,-6.07 -18.2,-6.07 -7.4,0 -13.44,2.01 -18.13,6.05 -4.68,4.01 -7.02,9.14 -7.02,15.36 0,6.23 2.34,11.36 7.02,15.37 4.69,4.04 10.73,6.05 18.13,6.05zm0 8.16c-9.92,0 -18.1,-2.81 -24.51,-8.43 -6.4,-5.6 -9.61,-12.65 -9.61,-21.15 0,-8.52 3.19,-15.56 9.57,-21.12 6.4,-5.55 14.59,-8.32 24.55,-8.32 10.06,0 18.3,2.77 24.7,8.3 6.37,5.53 9.56,12.58 9.56,21.14 0,8.55 -3.21,15.6 -9.61,21.19 -6.41,5.6 -14.61,8.39 -24.65,8.39zm59.02 -1.74l-18.87 -55.8 8.63 0 13.58 40.83 14.03 -40.83 7.27 0 14.03 40.83 13.65 -40.83 8.57 0 -18.76 55.8 -6.27 0 -14.81 -42.93 -14.9 42.93 -6.15 0zm66.62 -7.14l4.23 -7.32c3.84,2.57 8.04,4.58 12.56,6.01 4.55,1.45 8.88,2.16 13.03,2.16 4.97,0 8.99,-1 12.04,-3.04 3.06,-2.02 4.58,-4.61 4.58,-7.78 0,-3.19 -1.41,-5.53 -4.2,-7.09 -2.79,-1.54 -7.18,-2.39 -13.2,-2.56 -10.17,-0.14 -17.15,-1.32 -20.95,-3.53 -3.79,-2.23 -5.69,-5.91 -5.69,-11.04 0,-4.79 2.08,-8.65 6.26,-11.58 4.16,-2.92 9.76,-4.37 16.79,-4.37 4.79,0 9.43,0.67 13.96,2.03 4.51,1.34 8.85,3.35 13.04,6l-4.39 7.23c-3.47,-2.34 -7.22,-4.15 -11.24,-5.44 -4.01,-1.27 -7.85,-1.92 -11.5,-1.92 -4.25,0 -7.66,0.73 -10.22,2.21 -2.57,1.49 -3.86,3.41 -3.86,5.8 0,2.47 1.29,4.23 3.88,5.28 2.59,1.05 7.09,1.56 13.49,1.56 8.9,0 15.59,1.5 20.12,4.51 4.53,3.01 6.8,7.47 6.8,13.4 0,5.27 -2.29,9.64 -6.88,13.14 -4.6,3.48 -10.55,5.22 -17.87,5.22 -5.42,0 -10.77,-0.78 -16.13,-2.32 -5.33,-1.54 -10.21,-3.73 -14.65,-6.56zm125.17 -14.41l21.81 0 -10.84 -21.38 -10.97 21.38zm-20.23 21.55l28.39 -55.8 5.49 0 28.61 55.8 -9.34 0 -7.25 -14.19 -29.47 0 -7.2 14.19 -9.23 0zm70.94 0l0 -55.8 4.57 0 35.45 39.21 0 -39.21 8.56 0 0 55.8 -4.57 0 -35.44 -39.08 0 39.08 -8.57 0zm92.54 -55.8c9.12,0 16.46,2.61 22.06,7.8 5.58,5.22 8.36,11.98 8.36,20.3 0,8.41 -2.74,15.12 -8.21,20.16 -5.46,5.02 -12.86,7.54 -22.21,7.54l-24.71 0 0 -55.8 24.71 0zm0.14 8.02l-16.15 0 0 39.75 16.15 0c6.62,0 11.84,-1.79 15.63,-5.33 3.79,-3.55 5.69,-8.39 5.69,-14.48 0,-5.88 -1.97,-10.68 -5.89,-14.38 -3.93,-3.7 -9.06,-5.56 -15.43,-5.56zm120.92 -16.05l-21.97 0 0 55.53 21.97 0c8.88,0 15.88,-2.5 20.97,-7.47 5.1,-5 7.65,-11.73 7.65,-20.23 0,-8.36 -2.59,-15.1 -7.79,-20.18 -5.17,-5.11 -12.13,-7.65 -20.83,-7.65zm0 -8.3c11.35,0 20.5,3.35 27.43,10.06 6.94,6.71 10.42,15.43 10.42,26.2 0,10.84 -3.41,19.54 -10.23,26.08 -6.86,6.53 -16.04,9.79 -27.62,9.79l-30.93 0 0 -72.13 30.93 0zm81.59 65.71c7.45,0 13.54,-2.01 18.24,-6.05 4.71,-4.01 7.05,-9.14 7.05,-15.37 0,-6.17 -2.37,-11.28 -7.09,-15.34 -4.73,-4.04 -10.8,-6.07 -18.2,-6.07 -7.41,0 -13.45,2.01 -18.13,6.05 -4.69,4.01 -7.03,9.14 -7.03,15.36 0,6.23 2.34,11.36 7.03,15.37 4.68,4.04 10.72,6.05 18.13,6.05zm0 8.16c-9.93,0 -18.11,-2.81 -24.51,-8.43 -6.41,-5.6 -9.62,-12.65 -9.62,-21.15 0,-8.52 3.19,-15.56 9.58,-21.12 6.39,-5.55 14.58,-8.32 24.55,-8.32 10.06,0 18.28,2.77 24.69,8.3 6.37,5.53 9.57,12.58 9.57,21.14 0,8.55 -3.22,15.6 -9.62,21.19 -6.4,5.6 -14.61,8.39 -24.64,8.39zm77.75 -8.16c7.45,0 13.54,-2.01 18.24,-6.05 4.71,-4.01 7.05,-9.14 7.05,-15.37 0,-6.17 -2.36,-11.28 -7.09,-15.34 -4.73,-4.04 -10.8,-6.07 -18.2,-6.07 -7.41,0 -13.45,2.01 -18.14,6.05 -4.68,4.01 -7.02,9.14 -7.02,15.36 0,6.23 2.34,11.36 7.02,15.37 4.69,4.04 10.73,6.05 18.14,6.05zm0 8.16c-9.93,0 -18.11,-2.81 -24.51,-8.43 -6.41,-5.6 -9.62,-12.65 -9.62,-21.15 0,-8.52 3.19,-15.56 9.57,-21.12 6.41,-5.55 14.59,-8.32 24.56,-8.32 10.05,0 18.29,2.77 24.69,8.3 6.38,5.53 9.56,12.58 9.56,21.14 0,8.55 -3.2,15.6 -9.61,21.19 -6.4,5.6 -14.61,8.39 -24.64,8.39zm57.27 -34.26l29.66 0c3.02,0 5.31,-0.65 6.9,-1.96 1.58,-1.32 2.38,-3.19 2.38,-5.65 0,-2.43 -0.8,-4.3 -2.38,-5.57 -1.59,-1.3 -3.88,-1.94 -6.9,-1.94l-29.66 0 0 15.12zm0 8.16l0 24.36 -8.7 0 0 -55.67 38.36 0c5.71,0 10.18,1.38 13.41,4.13 3.23,2.74 4.84,6.55 4.84,11.44 0,3.94 -1.27,7.38 -3.84,10.28 -2.54,2.9 -5.86,4.68 -9.97,5.33l15.55 24.49 -9.48 0 -15.83 -24.36 -24.34 0zm58.88 17.22l4.24 -7.32c3.84,2.57 8.03,4.58 12.56,6.01 4.55,1.45 8.88,2.16 13.02,2.16 4.98,0 8.99,-1 12.05,-3.04 3.06,-2.02 4.57,-4.61 4.57,-7.78 0,-3.19 -1.41,-5.53 -4.19,-7.09 -2.79,-1.54 -7.19,-2.39 -13.21,-2.56 -10.17,-0.14 -17.15,-1.32 -20.94,-3.53 -3.79,-2.23 -5.69,-5.91 -5.69,-11.04 0,-4.79 2.08,-8.65 6.24,-11.58 4.18,-2.92 9.78,-4.37 16.8,-4.37 4.8,0 9.44,0.67 13.96,2.03 4.51,1.34 8.85,3.35 13.05,6l-4.39 7.23c-3.49,-2.34 -7.23,-4.15 -11.25,-5.44 -4.01,-1.27 -7.84,-1.92 -11.5,-1.92 -4.24,0 -7.66,0.73 -10.22,2.21 -2.56,1.49 -3.86,3.41 -3.86,5.8 0,2.47 1.3,4.23 3.88,5.28 2.59,1.05 7.1,1.56 13.5,1.56 8.9,0 15.59,1.5 20.11,4.51 4.53,3.01 6.81,7.47 6.81,13.4 0,5.27 -2.3,9.64 -6.9,13.14 -4.59,3.48 -10.54,5.22 -17.86,5.22 -5.42,0 -10.77,-0.78 -16.12,-2.32 -5.33,-1.54 -10.22,-3.73 -14.66,-6.56z"/>
  </g>
 </g>
</svg>
